<svg width="48" height="49" viewBox="0 0 48 49" fill="none" xmlns="http://www.w3.org/2000/svg">
<g clip-path="url(#clip0_12_523)">
<path fill-rule="evenodd" clip-rule="evenodd" d="M9.0948 32.0529C6.3564 32.0529 4.4688 29.7849 4.4688 26.4333C4.4688 23.0493 6.3564 20.7825 9.0948 20.7825C11.8308 20.7825 13.7208 23.0493 13.7208 26.4009C13.7208 29.7849 11.832 32.0529 9.0948 32.0529ZM9.0948 36.2985C14.1612 36.2985 18.1884 32.0841 18.1884 26.4009C18.1884 20.7825 14.3808 16.5369 9.0948 16.5369C4.0284 16.5357 0 20.7489 0 26.4321C0 32.1477 3.8076 36.2973 9.0948 36.2973" fill="#6E0AD6"/>
<path fill-rule="evenodd" clip-rule="evenodd" d="M21.9337 28.7636H30.6181C31.2169 28.7636 31.5625 28.4132 31.5625 27.806V25.0281C31.5625 24.422 31.2169 24.0704 30.6181 24.0704H24.7969V12.2576C24.7969 11.6516 24.4513 11.3 23.8525 11.3H20.9893C20.3917 11.3 20.0449 11.6516 20.0449 12.2576V26.8485C20.0449 28.094 20.7061 28.7636 21.9337 28.7636Z" fill="#8CE563"/>
<path fill-rule="evenodd" clip-rule="evenodd" d="M33.7346 36.0117L38.9582 29.9132L44.0246 36.0117C44.465 36.5541 45.0314 36.554 45.5342 36.1076L47.5802 34.2873C48.0842 33.8396 48.1466 33.2661 47.675 32.7548L42.0422 26.3696L47.171 20.5268C47.6114 20.0156 47.579 19.4732 47.0774 18.9944L45.1574 17.2388C44.6534 16.7588 44.087 16.7912 43.6466 17.3348L38.9582 22.8572L34.175 17.3336C33.7346 16.8236 33.167 16.7588 32.6642 17.2376L30.6818 19.0256C30.1778 19.5056 30.1466 20.0156 30.6182 20.5592L35.843 26.4008L30.1466 32.8184C29.675 33.3608 29.7386 33.9044 30.2414 34.3508L32.2238 36.1076C32.7278 36.554 33.293 36.5217 33.7346 36.0117Z" fill="#F28000"/>
</g>
<defs>
<clipPath id="clip0_12_523">
<rect width="48" height="48" fill="white" transform="translate(0 0.5)"/>
</clipPath>
</defs>
</svg>
