<svg xmlns="http://www.w3.org/2000/svg" enable-background="new 0 0 64 64" viewBox="0 0 64 64" id="brain-networking"><path fill="#34495c" d="M43.17 15.28c-2.12 0-3.84-1.72-3.84-3.84 0-2.11 1.72-3.84 3.84-3.84S47 9.33 47 11.44C47 13.56 45.28 15.28 43.17 15.28zM43.17 9.55c-1.05 0-1.9.85-1.9 1.9s.85 1.9 1.9 1.9 1.9-.85 1.9-1.9S44.21 9.55 43.17 9.55zM51.58 19.03c-2.12 0-3.84-1.72-3.84-3.84 0-2.11 1.72-3.84 3.84-3.84s3.84 1.72 3.84 3.84C55.42 17.31 53.69 19.03 51.58 19.03zM51.58 13.3c-1.05 0-1.9.85-1.9 1.9s.85 1.9 1.9 1.9 1.9-.85 1.9-1.9S52.63 13.3 51.58 13.3zM57.03 39.78c-2.12 0-3.84-1.72-3.84-3.84 0-2.11 1.72-3.84 3.84-3.84 2.12 0 3.84 1.72 3.84 3.84C60.87 38.06 59.14 39.78 57.03 39.78zM57.03 34.05c-1.05 0-1.9.85-1.9 1.9 0 1.05.85 1.9 1.9 1.9 1.05 0 1.9-.85 1.9-1.9C58.93 34.9 58.07 34.05 57.03 34.05zM44.03 40.2c-2.12 0-3.84-1.72-3.84-3.84 0-2.11 1.72-3.84 3.84-3.84s3.84 1.72 3.84 3.84C47.86 38.48 46.14 40.2 44.03 40.2zM44.03 34.47c-1.05 0-1.9.85-1.9 1.9 0 1.05.85 1.9 1.9 1.9s1.9-.85 1.9-1.9C45.92 35.32 45.07 34.47 44.03 34.47zM48.23 60.56c-2.12 0-3.84-1.72-3.84-3.84 0-2.11 1.72-3.84 3.84-3.84 2.12 0 3.84 1.72 3.84 3.84C52.07 58.84 50.35 60.56 48.23 60.56zM48.23 54.83c-1.05 0-1.9.85-1.9 1.9 0 1.05.85 1.9 1.9 1.9s1.9-.85 1.9-1.9C50.13 55.68 49.28 54.83 48.23 54.83z"></path><path fill="#34495c" d="M46.21 55.66c-.25 0-.5-.1-.69-.29l-1.83-1.85h-9.36c-.54 0-.97-.43-.97-.97 0-.54.43-.97.97-.97h9.77c.26 0 .51.1.69.29l2.11 2.13c.38.38.37.99-.01 1.37C46.7 55.57 46.45 55.66 46.21 55.66zM51.1 49.2c-2.12 0-3.84-1.72-3.84-3.84 0-2.11 1.72-3.84 3.84-3.84 2.12 0 3.84 1.72 3.84 3.84C54.94 47.48 53.22 49.2 51.1 49.2zM51.1 43.47c-1.05 0-1.9.85-1.9 1.9 0 1.05.85 1.9 1.9 1.9s1.9-.85 1.9-1.9C53 44.32 52.15 43.47 51.1 43.47z"></path><path fill="#34495c" d="M48.23 46.33H34.38c-.54 0-.97-.43-.97-.97s.43-.97.97-.97h13.86c.54 0 .97.43.97.97S48.77 46.33 48.23 46.33zM41.16 37.34h-6.75c-.54 0-.97-.43-.97-.97s.43-.97.97-.97h6.75c.54 0 .97.43.97.97S41.69 37.34 41.16 37.34zM54.99 34.9c-.25 0-.51-.1-.7-.3l-6.02-6.27H34.49c-.54 0-.97-.43-.97-.97s.43-.97.97-.97h14.2c.26 0 .52.11.7.3l6.3 6.57c.37.39.36 1-.03 1.37C55.47 34.81 55.23 34.9 54.99 34.9zM46.03 21.67H34.45c-.54 0-.97-.43-.97-.97s.43-.97.97-.97h11.2l3.29-3.16c.39-.37 1-.36 1.37.03.37.39.36 1-.03 1.37L46.7 21.4C46.52 21.57 46.28 21.67 46.03 21.67z"></path><g><path fill="#34495c" d="M40.3,12.41h-5.85c-0.54,0-0.97-0.43-0.97-0.97s0.43-0.97,0.97-0.97h5.85c0.54,0,0.97,0.43,0.97,0.97
				S40.83,12.41,40.3,12.41z"></path></g><g><path fill="#00aeef" d="M24.94,64c-1.29,0-2.51-0.14-3.69-0.4l-0.13-0.03c-0.31-0.07-0.62-0.15-0.91-0.24
				c-5.86-1.72-10.02-6.51-10.58-12.18c-0.03-0.32-0.05-0.65-0.06-0.98l-0.01-0.23c0-0.11,0-0.2,0-0.3c0,0,0,0,0,0
				c-3.95-2.62-6.33-6.94-6.44-11.59c-0.05-2.2,0.4-4.34,1.33-6.34c0.89-1.9,2.22-3.61,3.84-4.96c0,0,0,0,0,0l-0.04-0.05
				c-1.28-1.78-1.98-3.85-2.03-6.04c-0.07-2.87,0.99-5.59,2.97-7.67c1.98-2.07,4.66-3.25,7.53-3.32c0.25,0,0.5,0,0.75,0.01
				c-0.01-0.18-0.02-0.35-0.03-0.54C17.35,4.21,21.27,0.11,26.2,0c1.99-0.02,3.97,0.58,5.55,1.77c0.29,0.22,0.57,0.45,0.82,0.69
				c1.73,1.66,2.71,3.89,2.77,6.26c0.01,0.06,0.18,2.58,0.1,5.12l-0.02,3.3l0,1.02l-0.14,36.55c-0.21,3.19-1.76,8.56-9.89,9.27
				C25.24,64,25.09,64,24.94,64z M16.99,11.6c-0.07,0-0.14,0-0.21,0c-2.35,0.05-4.54,1.02-6.17,2.72c-1.63,1.7-2.49,3.93-2.44,6.28
				c0.04,1.79,0.61,3.49,1.64,4.91l0.16,0.21c0,0,0.06,0.08,0.06,0.09c0.04,0.04,0.03,0.03,0.07,0.08c0.07,0.1,0.16,0.2,0.24,0.29
				c0.21,0.2,0.32,0.48,0.3,0.76s-0.16,0.55-0.39,0.72c-0.22,0.16-0.36,0.27-0.5,0.38c-0.07,0.05-0.13,0.1-0.19,0.15
				c-1.43,1.19-2.58,2.67-3.35,4.31C5.42,34.25,5.03,36.09,5.08,38c0.09,4.02,2.15,7.75,5.5,9.98c0.2,0.13,0.35,0.23,0.5,0.32
				c0.3,0.19,0.48,0.52,0.46,0.88c-0.01,0.24-0.02,0.48-0.02,0.72l0,0.23c0.01,0.28,0.02,0.57,0.05,0.84
				c0.48,4.88,4.09,9,9.21,10.51c0.27,0.09,0.54,0.15,0.8,0.21l0.11,0.03c1.14,0.26,2.35,0.38,3.59,0.35
				c5.04-0.44,7.77-2.94,8.06-7.4l0.13-36.48l0-1.02l0.02-3.32c0-0.01,0-0.02,0-0.03c0.08-2.45-0.09-4.97-0.09-4.99
				c-0.04-1.9-0.82-3.65-2.17-4.95c-0.2-0.19-0.42-0.37-0.65-0.54c-1.24-0.93-2.78-1.44-4.34-1.38c-3.86,0.09-6.93,3.3-6.84,7.15
				c0.01,0.52,0.07,1,0.18,1.45c0.08,0.32-0.01,0.65-0.23,0.89c-0.22,0.24-0.55,0.34-0.87,0.29C17.99,11.64,17.49,11.6,16.99,11.6z"></path><path fill="#00aeef" d="M20.51 28.32c-.25 0-.49-.09-.68-.28-4.56-4.52-9.31-.58-9.51-.41-.41.35-1.02.3-1.37-.11-.35-.41-.3-1.02.1-1.36 2.15-1.85 7.46-4.14 12.14.5.38.38.38.99.01 1.37C21.01 28.23 20.76 28.32 20.51 28.32zM24.07 15.62c-3.78 0-5.79-2.88-6.34-4.54-.17-.51.1-1.06.61-1.23.51-.17 1.05.1 1.23.6.05.16 1.33 3.68 5.26 3.17.54-.06 1.02.31 1.08.84.07.53-.31 1.02-.84 1.08C24.72 15.6 24.39 15.62 24.07 15.62zM24.25 55.6c-1.58 0-2.84-.43-3.78-1.3-1.49-1.37-1.5-3.3-1.5-3.38 0-.54.43-.97.97-.97h0c.53 0 .97.43.97.96 0 .04.04 1.2.89 1.98.67.61 1.7.86 3.06.74.54-.04 1 .35 1.05.89.04.53-.35 1-.89 1.05C24.76 55.59 24.5 55.6 24.25 55.6zM20.9 50.92L20.9 50.92 20.9 50.92zM12.69 41.43C12.69 41.43 12.69 41.43 12.69 41.43c-.54 0-.97-.43-.97-.97 0-.53.43-.97.96-.97.04 0 1.2-.04 1.98-.89.61-.67.86-1.7.74-3.07-.04-.53.35-1 .89-1.05.55-.04 1 .35 1.05.89.16 1.94-.26 3.47-1.26 4.55C14.7 41.41 12.78 41.43 12.69 41.43zM30.28 41.54c-.52 0-.95-.41-.97-.93 0-.03-.08-1.2-.97-1.94-.69-.58-1.73-.8-3.09-.63-.52.07-1.01-.31-1.08-.85-.06-.53.31-1.01.85-1.08 1.93-.23 3.48.13 4.6 1.09 1.54 1.31 1.63 3.24 1.63 3.32.02.54-.4.99-.93 1.01C30.3 41.54 30.29 41.54 30.28 41.54zM29.43 25.87c-.52 0-.95-.41-.97-.93 0-.03-.08-1.2-.97-1.94-.69-.58-1.73-.79-3.09-.63-.53.06-1.02-.31-1.08-.85-.06-.53.31-1.01.85-1.08 1.93-.23 3.48.13 4.6 1.09 1.54 1.31 1.63 3.24 1.63 3.32.02.54-.4.99-.93 1.01C29.45 25.87 29.44 25.87 29.43 25.87z"></path></g></svg>